# xmcd
#
# Track frame offsets: 
#        150
#        12637
#        27132
#        39906
#        53100
#        68606
#        83640
#        98378
#        112543
#        125913
#        138151
#        151214
#        163637
#        177637
#        191833
#        206864
#        220247
#        234277
#        247244
#        259573
#        271890
#        284485
#        296878
#        310391
#        323203
#        335114
#
# Disc length: 4646 seconds
#
# Revision: 0
# Processed by: cddbd v1.5.2PL0 Copyright (c) Steve Scherf et al.
# Submitted via: ExactAudioCopyFreeDBPlugin 1.0
#
DISCID=8012241a
DTITLE=America! - Vol. 5 - Blues - Hell Blues On my Trail
DYEAR=2014
DGENRE=Blues
TTITLE0=Graveyard dream blues - Bessie Smith
TTITLE1=Blues ain't nothing else but! - Ida Cox
TTITLE2=Nobody knows the way I feel this morning - Alberta Hunter
TTITLE3=Pratt city blues - Bertha "Chippie" Hill
TTITLE4=Somebody's been lovin' my babe - Monette Moore
TTITLE5=Dead drunk blues - Margaret Johnson
TTITLE6=Dope head blues - Victoria Spivey
TTITLE7=Cross-eyed blues - Helen Humes
TTITLE8=I thought I'd do it - Hattie McDaniel
TTITLE9=Prove it on me blues - Ma Rainey
TTITLE10=I'm a mighty tight woman - Sippie Wallace
TTITLE11=Nickle's worth of liver blues - Edith Johnson
TTITLE12=Shreveport blues - Lillian Glinn
TTITLE13=Down the big road blues - Mattie Delaney
TTITLE14=Can't be bothered with no sheik - Rosa Henderson
TTITLE15=Groceries on the shelf - Lucille Bogan
TTITLE16=Butcher shop blues - Bernice Edwards
TTITLE17=I lost my baby - Lil Johnson
TTITLE18=Just a good woman through with the blues - Trixie Butler
TTITLE19=Billie's blues - Billie Holiday
TTITLE20=Happy home blues - Mississippi Matilda
TTITLE21=Ma Rainey - Memphis Minnie
TTITLE22=Why don't you do right - Lillian Green
TTITLE23=Santa Fe blues - Mama Yancey
TTITLE24=New blowtop blues - Dinah Washington
TTITLE25=The Gambling man - Sister Ola Mae Terrell
EXTD=
EXTT0=
EXTT1=
EXTT2=
EXTT3=
EXTT4=
EXTT5=
EXTT6=
EXTT7=
EXTT8=
EXTT9=
EXTT10=
EXTT11=
EXTT12=
EXTT13=
EXTT14=
EXTT15=
EXTT16=
EXTT17=
EXTT18=
EXTT19=
EXTT20=
EXTT21=
EXTT22=
EXTT23=
EXTT24=
EXTT25=
PLAYORDER=
